PathFileType	4	(X/Y/Z)	/Users/itak/Documents/Research/Walk-IL/dataset/trc/00478_00167.trc
DataRate	CameraRate	NumFrames	NumMarkers	Units	OrigDataRate	OrigDataStartFrame	OrigNumFrames
100.000000	100.000000	4	53	mm	100.000000	407	543
Frame#	Time	RPSI			LPSI			L3			STRN			T10			C7			CLAV			RBAK			LBAK			LSHO			LUPA			LAEL			LAOL			LWTS			LWPS			LFRA			LIFD			LHPS			LHTS			RSHO			RUPA			RAEL			RAOL			RWTS			RWPS			RFRA			RIFD			RHTS			RHPS			RBHD			LFHD			RFHD			LBHD			LHIP			RHIP			RASI			LASI			LKNE			LTHI			LANK			LTIP			LTOE			LMT1			LMT5			LHEE			RKNE			RTHI			RANK			RTIP			RTOE			RMT1			RMT5			RHEE			
		X1	Y1	Z1	X2	Y2	Z2	X3	Y3	Z3	X4	Y4	Z4	X5	Y5	Z5	X6	Y6	Z6	X7	Y7	Z7	X8	Y8	Z8	X9	Y9	Z9	X10	Y10	Z10	X11	Y11	Z11	X12	Y12	Z12	X13	Y13	Z13	X14	Y14	Z14	X15	Y15	Z15	X16	Y16	Z16	X17	Y17	Z17	X18	Y18	Z18	X19	Y19	Z19	X20	Y20	Z20	X21	Y21	Z21	X22	Y22	Z22	X23	Y23	Z23	X24	Y24	Z24	X25	Y25	Z25	X26	Y26	Z26	X27	Y27	Z27	X28	Y28	Z28	X29	Y29	Z29	X30	Y30	Z30	X31	Y31	Z31	X32	Y32	Z32	X33	Y33	Z33	X34	Y34	Z34	X35	Y35	Z35	X36	Y36	Z36	X37	Y37	Z37	X38	Y38	Z38	X39	Y39	Z39	X40	Y40	Z40	X41	Y41	Z41	X42	Y42	Z42	X43	Y43	Z43	X44	Y44	Z44	X45	Y45	Z45	X46	Y46	Z46	X47	Y47	Z47	X48	Y48	Z48	X49	Y49	Z49	X50	Y50	Z50	X51	Y51	Z51	X52	Y52	Z52	X53	Y53	Z53	

408	4.07	-365.9559936523438	925.1138305664062	-359.5754089355469	-388.436767578125	911.3800659179688	-219.6366729736328	-387.3420715332031	1022.827941894531	-312.5296325683594	-661.5393676757812	1216.64208984375	-302.5009765625	-373.3616027832031	1147.14306640625	-307.9661865234375	-443.6090698242188	1417.612426757812	-303.7780151367188	-622.7119750976562	1327.757202148438	-288.8475646972656	-377.8900451660156	1302.662719726562	-406.7765502929688	-403.9419860839844	1361.489135742188	-212.1659851074219	-500.4813842773438	1371.388427734375	-125.3880767822266	-473.0146484375	1245.8486328125	-40.64850997924805	-467.7859802246094	1030.81640625	-19.56218719482422	-404.6103210449219	1026.859375	-101.6089019775391	-519.753173828125	815.414794921875	-54.24452972412109	-460.7530212402344	810.763427734375	-8.542668342590332	-472.4034729003906	941.1524658203125	-9.151593208312988	-483.3923645019531	658.5223999023438	-51.131103515625	-448.5178833007812	734.1583251953125	-11.77122402191162	-511.4602355957031	727.5057373046875	-47.4394645690918	-511.0294189453125	1397.097412109375	-461.0560913085938	-494.240966796875	1344.43505859375	-542.0516967773438	-508.5635375976562	1071.57421875	-640.9415283203125	-461.286376953125	1038.674926757812	-603.9871215820312	-661.4754638671875	900.4349365234375	-611.0698852539062	-604.1831665039062	873.303955078125	-673.4212036132812	-526.5155639648438	1016.751831054688	-656.3652954101562	-714.2047729492188	756.601806640625	-640.2879028320312	-707.2691650390625	816.545166015625	-634.8147583007812	-647.6470336914062	797.80078125	-681.11474609375	-623.46728515625	1605.127685546875	-361.2971801757812	-711.9978637695312	1551.186645507812	-181.5899963378906	-743.5398559570312	1558.80322265625	-307.7435607910156	-569.4750366210938	1605.573852539062	-192.151611328125	-558.3228759765625	829.892578125	-129.8515472412109	-452.82080078125	833.1571044921875	-521.8446044921875	-572.1194458007812	867.4697265625	-473.0453491210938	-630.8553466796875	876.5967407226562	-225.5015869140625	-749.3731079101562	457.9408264160156	-170.5078125	-707.2609252929688	606.3952026367188	-148.0838623046875	-725.6724243164062	42.61922073364258	-154.6746520996094	-767.94580078125	303.3567504882812	-152.4087066650391	-953.1788940429688	41.78937911987305	-246.1174774169922	-873.1815795898438	47.34845733642578	-267.4505004882812	-881.4686279296875	46.85218811035156	-154.2529296875	-674.662109375	46.07446670532227	-214.5070343017578	-418.8864135742188	450.6174926757812	-511.5863037109375	-483.7526245117188	696.9601440429688	-533.2406005859375	-120.3234710693359	112.6315078735352	-491.4423522949219	-334.8505249023438	327.9386901855469	-517.8145141601562	-301.9096984863281	42.19391250610352	-438.2978210449219	-252.9464111328125	55.16803359985352	-406.7196655273438	-228.9983520507812	47.87991333007812	-509.4796752929688	-70.61636352539062	155.0927429199219	-444.9446716308594	
409	4.08	-373.9031677246094	926.7186279296875	-357.6090087890625	-397.0595397949219	913.7941284179688	-217.6560821533203	-395.4030456542969	1025.657592773438	-310.2744750976562	-670.2389526367188	1219.179321289062	-300.9324951171875	-381.6541137695312	1149.81103515625	-305.3954467773438	-452.440185546875	1419.988159179688	-300.8231201171875	-631.5277099609375	1330.33642578125	-287.0690002441406	-386.1539306640625	1305.498413085938	-403.8755493164062	-413.4837036132812	1363.815185546875	-208.8607482910156	-510.7594909667969	1373.907592773438	-122.8435134887695	-484.7534790039062	1248.289184570312	-37.89255905151367	-480.2786560058594	1033.017822265625	-17.64860153198242	-415.62841796875	1029.360229492188	-98.52916717529297	-531.23388671875	817.32666015625	-54.2451171875	-473.2536315917969	812.7863159179688	-7.289698123931885	-484.9978332519531	943.3348999023438	-7.684606075286865	-493.0048522949219	660.6683959960938	-51.98049926757812	-460.0661926269531	736.1986083984375	-11.06339454650879	-521.9888916015625	729.1471557617188	-48.34679412841797	-519.1231079101562	1399.9521484375	-458.4777526855469	-501.8590087890625	1347.391845703125	-539.4047241210938	-513.5392456054688	1073.804931640625	-637.2505493164062	-466.4867858886719	1041.592529296875	-599.459716796875	-664.3047485351562	900.292724609375	-609.0582885742188	-605.7432861328125	873.9197998046875	-670.3333129882812	-530.5164184570312	1018.669921875	-652.7396850585938	-714.1751098632812	755.4566650390625	-638.6764526367188	-708.4243774414062	815.58642578125	-633.1248168945312	-647.7689208984375	797.695068359375	-678.3446655273438	-632.5341186523438	1607.187133789062	-358.931396484375	-721.1112670898438	1553.175170898438	-179.2629547119141	-752.5823364257812	1560.742431640625	-305.4357604980469	-578.5941772460938	1607.662353515625	-189.7607727050781	-567.161865234375	831.9851684570312	-127.9062194824219	-461.778076171875	834.44921875	-519.2984619140625	-580.4131469726562	870.0238647460938	-470.6412658691406	-639.4141845703125	878.8145751953125	-223.42431640625	-754.8311157226562	458.1570434570312	-169.3240814208984	-714.1614379882812	607.087890625	-146.4337005615234	-725.6763305664062	42.64854431152344	-154.6473236083984	-771.3250732421875	303.0829162597656	-151.4801025390625	-953.1060791015625	42.04270553588867	-246.2444305419922	-873.1923217773438	47.66911697387695	-267.3313293457031	-881.49951171875	47.00209426879883	-154.0670928955078	-674.7640380859375	46.1390495300293	-214.4695434570312	-435.1171264648438	451.7160034179688	-514.8133544921875	-494.7039794921875	698.75927734375	-532.4249267578125	-127.2803497314453	121.2007064819336	-491.7832641601562	-348.34423828125	331.1419982910156	-520.9039916992188	-303.6900939941406	41.24297332763672	-438.9965209960938	-256.8235473632812	57.42613220214844	-407.2695922851562	-231.7188262939453	49.58480072021484	-509.4364013671875	-80.63848876953125	167.0638275146484	-445.2234497070312	
410	4.09	-381.5982055664062	928.40673828125	-355.1622619628906	-405.7266235351562	916.3566284179688	-215.2168426513672	-403.2347717285156	1028.412109375	-307.7737426757812	-678.66650390625	1221.701171875	-299.5188598632812	-389.8266296386719	1152.483154296875	-302.7318725585938	-461.0556030273438	1422.413452148438	-298.0283813476562	-640.1378784179688	1332.939086914062	-285.4496459960938	-394.2238159179688	1308.314208984375	-401.0559997558594	-422.8277282714844	1366.20751953125	-205.7489013671875	-520.7889404296875	1376.584350585938	-120.491813659668	-496.2257690429688	1250.985717773438	-35.23725509643555	-492.637939453125	1035.462036132812	-15.61767101287842	-426.4731750488281	1031.9716796875	-95.26659393310547	-543.0987548828125	819.639404296875	-54.08628463745117	-486.203369140625	815.0425415039062	-5.877255439758301	-497.6673583984375	945.76953125	-6.083557605743408	-503.451171875	663.1609497070312	-52.61584091186523	-472.2745971679688	738.4453735351562	-10.15818500518799	-533.1372680664062	731.1885375976562	-49.0567512512207	-526.9802856445312	1402.8291015625	-456.0191345214844	-509.2541198730469	1350.417724609375	-536.89306640625	-518.51953125	1076.179321289062	-633.8119506835938	-471.5989685058594	1044.66455078125	-595.3164672851562	-666.9222412109375	900.0931396484375	-606.991455078125	-607.2252807617188	874.6265258789062	-667.36279296875	-534.5241088867188	1020.740478515625	-649.3603515625	-713.5113525390625	754.0889282226562	-636.6619873046875	-709.1432495117188	814.3960571289062	-631.0806274414062	-647.5838623046875	797.5415649414062	-675.4371948242188	-641.4671630859375	1609.306030273438	-356.7329711914062	-729.9276733398438	1555.223510742188	-177.0418395996094	-761.423095703125	1562.711547851562	-303.2130126953125	-587.4407958984375	1609.851684570312	-187.5774383544922	-576.0784912109375	833.8316040039062	-125.9597549438477	-470.201171875	835.8255615234375	-516.5966186523438	-588.21875	872.6978759765625	-468.4635620117188	-647.8244018554688	880.6465454101562	-221.6068878173828	-759.5192260742188	457.9518432617188	-168.3111572265625	-720.394775390625	607.1090087890625	-144.9809722900391	-725.6572875976562	42.66313171386719	-154.6555938720703	-774.146484375	302.62158203125	-150.7270660400391	-953.0343627929688	42.32343292236328	-246.3844451904297	-873.2142944335938	47.94203567504883	-267.262939453125	-881.476806640625	47.17250442504883	-153.9689788818359	-674.7938842773438	46.20251846313477	-214.4653778076172	-451.6354370117188	452.9836120605469	-518.2672729492188	-505.2517395019531	700.8319091796875	-531.8158569335938	-135.482177734375	130.2364196777344	-492.2079467773438	-362.6496887207031	334.2907409667969	-524.06298828125	-306.4951171875	40.03281021118164	-440.0069885253906	-261.7792053222656	60.07460021972656	-407.9391784667969	-235.4111938476562	51.96414184570312	-509.627197265625	-91.76728057861328	179.0972442626953	-445.6876220703125	
411	4.1	-389.0296936035156	930.112548828125	-352.2895812988281	-414.3815612792969	919.0553588867188	-212.3733673095703	-410.905517578125	1031.036376953125	-305.0293273925781	-686.8239135742188	1224.13916015625	-298.2861633300781	-397.8667297363281	1155.108642578125	-299.9629821777344	-469.4461669921875	1424.842163085938	-295.3913879394531	-648.5509643554688	1335.487548828125	-284.0082702636719	-402.0655517578125	1311.0458984375	-398.2797546386719	-431.9634094238281	1368.61865234375	-202.8170166015625	-530.572509765625	1379.341064453125	-118.3309173583984	-507.3915405273438	1253.851684570312	-32.68729400634766	-504.8097839355469	1038.070190429688	-13.45675754547119	-437.1229553222656	1034.6142578125	-91.83786773681641	-555.3172607421875	822.2901611328125	-53.74633407592773	-499.5523681640625	817.4591674804688	-4.312782764434814	-510.3560791015625	948.3794555664062	-4.335177898406982	-514.7976684570312	665.9141845703125	-53.02162551879883	-485.1390991210938	740.8192749023438	-9.061579704284668	-544.9404296875	733.5759887695312	-49.52663421630859	-534.5794677734375	1405.653198242188	-453.6978454589844	-516.39013671875	1353.420166015625	-534.5286865234375	-523.5217895507812	1078.622802734375	-630.6697998046875	-476.6430969238281	1047.798095703125	-591.6077880859375	-669.3935546875	899.8253173828125	-604.876953125	-608.732666015625	875.3982543945312	-664.5807495117188	-538.573486328125	1022.899047851562	-646.2760009765625	-712.322998046875	752.5317993164062	-634.1764526367188	-709.4990234375	812.9739379882812	-628.6460571289062	-647.2122192382812	797.32861328125	-672.430419921875	-650.22607421875	1611.451049804688	-354.7200012207031	-738.4473266601562	1557.31640625	-174.9499206542969	-770.0414428710938	1564.6923828125	-301.1024475097656	-596.0072631835938	1612.112670898438	-185.6046295166016	-585.0005493164062	835.501708984375	-124.0508880615234	-478.016357421875	837.2300415039062	-513.8081665039062	-595.4808349609375	875.4170532226562	-466.5764770507812	-656.0604248046875	882.114013671875	-220.1008758544922	-763.52783203125	457.45947265625	-167.4474182128906	-726.0847778320312	606.6961669921875	-143.7671203613281	-725.6290893554688	42.66570281982422	-154.6792297363281	-776.4900512695312	302.0494995117188	-150.1114959716797	-952.9782104492188	42.56452560424805	-246.5188598632812	-873.246337890625	48.14608383178711	-267.2345581054688	-881.4317016601562	47.31810760498047	-153.9249725341797	-674.7730102539062	46.27699279785156	-214.4757080078125	-468.3070983886719	454.445068359375	-521.8072509765625	-515.2365112304688	703.18212890625	-531.4179077148438	-144.9783477783203	139.6129302978516	-492.7673034667969	-377.6621398925781	337.3432006835938	-527.1874389648438	-310.5496826171875	38.69579315185547	-441.4288330078125	-267.9883728027344	63.11762237548828	-408.8025512695312	-240.2749938964844	55.09296035766602	-510.1417846679688	-103.9392547607422	190.9279327392578	-446.3424987792969	
